<svg width="20" height="20" viewBox="0 0 20 20" fill="none" xmlns="http://www.w3.org/2000/svg">
<path d="M9.16659 4.5833C9.16677 5.28478 8.91413 5.96284 8.45496 6.49317C7.9958 7.0235 7.36088 7.37059 6.66659 7.4708V9.5833H11.8749C12.3722 9.5833 12.8491 9.38575 13.2008 9.03412C13.5524 8.68249 13.7499 8.20558 13.7499 7.7083V7.37913C13.0802 7.17728 12.5053 6.74159 12.1298 6.15142C11.7543 5.56124 11.6033 4.85584 11.7043 4.16369C11.8053 3.47153 12.1515 2.83866 12.6799 2.38034C13.2083 1.92203 13.8838 1.66875 14.5833 1.66663C15.3216 1.6653 16.0329 1.94401 16.5738 2.44655C17.1147 2.94908 17.4448 3.63804 17.4977 4.37445C17.5506 5.11086 17.3222 5.83991 16.8586 6.41455C16.3951 6.98919 15.7308 7.36666 14.9999 7.4708V7.7083C14.9999 8.5371 14.6707 9.33196 14.0846 9.91801C13.4986 10.5041 12.7037 10.8333 11.8749 10.8333H6.66659V12.5291C7.37819 12.6318 8.02679 12.9938 8.48786 13.5454C8.94894 14.0971 9.19001 14.7996 9.1648 15.5182C9.13959 16.2367 8.84987 16.9206 8.35126 17.4386C7.85266 17.9566 7.18029 18.2722 6.46324 18.3247C5.74619 18.3773 5.03499 18.1632 4.46615 17.7235C3.89731 17.2838 3.51092 16.6495 3.38116 15.9423C3.25139 15.2351 3.3874 14.5049 3.76307 13.8919C4.13873 13.2789 4.72759 12.8262 5.41659 12.6208V7.37913C4.74687 7.17728 4.17192 6.74159 3.79646 6.15142C3.421 5.56124 3.27001 4.85584 3.37098 4.16369C3.47195 3.47153 3.81817 2.83866 4.34658 2.38034C4.87499 1.92203 5.55045 1.66875 6.24993 1.66663C7.02347 1.66663 7.76534 1.97392 8.31232 2.5209C8.8593 3.06788 9.16659 3.80975 9.16659 4.5833ZM6.24993 6.24996C6.69195 6.24996 7.11588 6.07437 7.42844 5.76181C7.741 5.44925 7.91659 5.02533 7.91659 4.5833C7.91659 4.14127 7.741 3.71735 7.42844 3.40479C7.11588 3.09223 6.69195 2.91663 6.24993 2.91663C5.8079 2.91663 5.38398 3.09223 5.07141 3.40479C4.75885 3.71735 4.58326 4.14127 4.58326 4.5833C4.58326 5.02533 4.75885 5.44925 5.07141 5.76181C5.38398 6.07437 5.8079 6.24996 6.24993 6.24996ZM14.5833 6.24996C15.0253 6.24996 15.4492 6.07437 15.7618 5.76181C16.0743 5.44925 16.2499 5.02533 16.2499 4.5833C16.2499 4.14127 16.0743 3.71735 15.7618 3.40479C15.4492 3.09223 15.0253 2.91663 14.5833 2.91663C14.1412 2.91663 13.7173 3.09223 13.4047 3.40479C13.0922 3.71735 12.9166 4.14127 12.9166 4.5833C12.9166 5.02533 13.0922 5.44925 13.4047 5.76181C13.7173 6.07437 14.1412 6.24996 14.5833 6.24996ZM7.91659 15.4166C7.91659 14.9746 7.741 14.5507 7.42844 14.2381C7.11588 13.9256 6.69195 13.75 6.24993 13.75C5.8079 13.75 5.38398 13.9256 5.07141 14.2381C4.75885 14.5507 4.58326 14.9746 4.58326 15.4166C4.58326 15.8587 4.75885 16.2826 5.07141 16.5951C5.38398 16.9077 5.8079 17.0833 6.24993 17.0833C6.69195 17.0833 7.11588 16.9077 7.42844 16.5951C7.741 16.2826 7.91659 15.8587 7.91659 15.4166Z" fill="black"/>
</svg>
